# xmcd CD database file
#
# Track frame offsets:
#	150
#	22607
#	45325
#	66517
#	85675
#	104127
#	125845
#	145350
#	166175
#	188437
#	210977
#	235895
#	257395
#	282282
#	306202
#	328990
#
# Disc length: 4622 seconds
#
# Revision: 1
# Processed by: cddbd v1.5.1PL2 Copyright (c) Steve Scherf et al.
# Submitted via: CDex 1.51
#
DISCID=dc120c10
DTITLE=Johnnie Taylor - There's No Good In Goodbye
DYEAR=2003
DGENRE=R&B
TTITLE0=If You're Lookin' For A Fool
TTITLE1=This Is The Night For Makin' Up
TTITLE2=Crazy Bout' You Baby
TTITLE3=Take Me To The Mardi Gras
TTITLE4=Too Wise To Be Your Fool
TTITLE5=Baby Sittin'
TTITLE6=You Know It Ain't Right
TTITLE7=I'm In A Midnight Mood
TTITLE8=If You Take Your Love Away
TTITLE9=I Found All These Things
TTITLE10=Please Sign The Dotted Line
TTITLE11=Where Is Your Woman Tonight
TTITLE12=Con Lover
TTITLE13=Is This Love Or Is This Business
TTITLE14=I Reach For You
TTITLE15=The Second Time Around
EXTD=JEK  MALACO MCD 7515 c. 2003 YEAR: 2003
EXTT0=
EXTT1=
EXTT2=
EXTT3=
EXTT4=
EXTT5=
EXTT6=
EXTT7=
EXTT8=
EXTT9=
EXTT10=
EXTT11=
EXTT12=
EXTT13=
EXTT14=
EXTT15=
PLAYORDER=
